# xmcd
#
# Track frame offsets: 
#        150
#        23708
#        45796
#        66734
#        89295
#        111929
#        133876
#        157642
#        174358
#        196070
#
# Disc length: 2938 seconds
#
# Revision: 5
# Processed by: cddbd v1.5.2PL0 Copyright (c) Steve Scherf et al.
# Submitted via: ExactAudioCopyFreeDBPlugin 1.0
#
DISCID=780b780a
DTITLE=The Robert Cray Band - Time Will Tell
DYEAR=2003
DGENRE=Blues
TTITLE0=Survivor
TTITLE1=Up In The Sky
TTITLE2=Back Door Slam
TTITLE3=I Didn't Know
TTITLE4=Your Pal
TTITLE5=Lotta Lovin'
TTITLE6=What You Need (Good Man)
TTITLE7=Spare Some Love?
TTITLE8=Distant Shore
TTITLE9=Time Makes Two
EXTD=
EXTT0=
EXTT1=
EXTT2=
EXTT3=
EXTT4=
EXTT5=
EXTT6=
EXTT7=
EXTT8=
EXTT9=
PLAYORDER=
